<svg width="835" height="600" viewBox="0 0 835 600" fill="none" xmlns="http://www.w3.org/2000/svg">
<g opacity="0.4">
<path d="M433.638 123.314L550.896 0L662.324 132.457L647.01 133.029V566.058L533.41 570.286L449.067 558.401V125.486L433.638 123.314Z" fill="#DDDFE1"/>
<path d="M631.122 133.599V550.628C619.007 551.085 554.779 553.485 541.75 553.943V136.914L631.122 133.599Z" fill="white"/>
<path d="M629.065 117.715C613.636 99.429 572.036 50.0575 555.579 30.5146L541.751 120.915C556.265 120.343 606.093 118.515 629.065 117.715Z" fill="white"/>
<path d="M586.42 153.486C594.534 153.143 601.163 159.543 601.163 167.772V204.344L571.678 205.372V168.686C571.678 160.572 578.306 153.715 586.42 153.372V153.486Z" fill="#DDDFE1"/>
<path d="M495.363 151.2C503.248 152.343 509.648 159.657 509.648 167.543V202.971L481.077 198.971V163.543C481.077 155.657 487.477 150.171 495.363 151.314V151.2Z" fill="white"/>
<path d="M594.214 366.971C592.157 361.486 591.128 355.657 591.128 349.371C591.471 326.171 607.471 306.971 628.957 301.6C630.442 285.029 644.385 272 661.414 272.229C666.9 272.229 671.928 273.829 676.385 276.229C682.671 271.2 690.785 268.343 699.471 268.343C717.528 268.571 732.385 281.714 735.357 298.857C739.242 297.714 743.242 297.029 747.585 297.143C769.642 297.371 787.357 315.543 787.014 337.6C787.014 349.486 781.528 360.114 773.186 367.314C784.614 377.6 791.928 392.457 791.928 409.029C791.928 439.886 766.9 464.914 736.043 464.914C724.043 464.914 712.957 461.143 703.928 454.743C702.671 456 701.3 457.143 699.928 458.286C699.585 475.886 700.157 520.8 716.385 540.114C699.7 539.543 682.557 541.829 665.757 541.372C665.757 541.372 674.1 493.143 675.7 469.372C672.043 470.172 668.157 470.514 664.157 470.4C640.385 470.057 620.385 455.086 612.385 434.171C611.014 434.286 609.757 434.514 608.271 434.514C588.728 434.286 572.957 418.171 573.299 398.629C573.414 384.457 582.1 372.343 594.214 366.743V366.971Z" fill="#DDDFE1"/>
<path d="M637.861 384.458C623.918 384.343 612.718 372.8 612.832 358.858C612.832 357.829 613.061 356.686 613.175 355.658C616.718 361.258 623.003 364.915 630.089 365.029C641.403 365.143 650.775 356.115 650.889 344.8C651.004 335.658 645.061 327.886 636.832 325.143C640.832 316.343 649.632 310.4 659.918 310.515C671.004 310.629 680.147 317.829 683.461 327.772C689.518 322.058 693.289 314.057 693.404 305.029C693.404 302.286 693.061 299.772 692.375 297.143C696.261 295.543 700.489 294.515 704.947 294.515C719.804 294.743 732.146 305.6 734.661 319.658C750.775 321.029 763.347 334.4 763.118 350.743C763.118 358.058 760.261 364.686 756.032 369.829C764.832 376.572 770.432 387.086 770.318 398.972C769.975 418.972 753.632 434.972 733.747 434.629C723.004 434.515 713.404 429.6 706.889 422.058C721.404 420.229 732.832 408 733.061 393.029C733.289 377.143 721.061 364.229 705.518 363.086C703.461 370.286 698.432 376.115 691.803 379.086C697.289 385.829 700.604 394.4 700.489 403.658C700.146 424.686 683.004 441.601 661.975 441.258C649.632 441.143 638.775 435.086 631.918 425.943C639.461 419.543 644.261 410.172 644.375 399.543C644.375 393.943 643.118 388.8 640.832 384.115C639.918 384.115 639.004 384.343 637.975 384.343L637.861 384.458ZM726.204 362.172C736.718 362.286 745.175 353.943 745.289 343.543C745.289 336.115 741.289 329.829 735.118 326.629C734.546 340.572 724.604 352 711.575 355.086C715.004 359.315 720.146 362.172 726.089 362.286L726.204 362.172Z" fill="white"/>
<path d="M0.274475 289.486L120.617 206.515L445.303 194.515L560.846 306.858L541.761 307.543V570.058L214.446 582.172L23.7029 555.315V292.915L0.388489 289.6L0.274475 289.486Z" fill="#DDDFE1"/>
<path d="M522.92 292.229C464.977 294.401 237.777 302.744 226.12 303.201C218.12 295.429 155.948 234.972 142.348 221.715C178.234 220.344 426.92 211.201 439.263 210.744C446.006 217.372 493.206 263.201 523.034 292.229H522.92Z" fill="white"/>
<path d="M451.586 298.744C445.643 298.972 439.586 299.201 433.414 299.429L363.928 223.201L451.586 298.744ZM420.157 299.887C414.214 300.115 408.157 300.344 402.1 300.572L332.729 224.572L420.157 299.887ZM514.215 296.458C508.615 296.687 502.557 296.915 496.043 297.144L426.214 220.572L514.329 296.458H514.215ZM482.9 297.601C477.071 297.83 471.014 298.058 464.729 298.287L395.014 221.944L482.9 297.601ZM388.843 301.144C382.786 301.372 376.729 301.601 370.786 301.829L301.529 225.944L388.843 301.144ZM263.472 305.715C255.814 306.058 249.757 306.172 245.643 306.401L177.071 231.201L263.586 305.715H263.472ZM294.786 304.572C288.386 304.801 282.328 305.03 276.843 305.258L208.157 229.829L294.786 304.572ZM357.414 302.287C351.357 302.515 345.3 302.744 339.471 302.972L270.443 227.315L357.528 302.287H357.414ZM326.1 303.429C319.928 303.658 313.872 303.887 308.157 304.115L239.243 228.572L326.1 303.429Z" fill="#DDDFE1"/>
<path d="M155.71 389.601L144.967 388.115V337.944L155.71 339.429V389.601ZM128.624 385.829L117.881 384.229V334.058L128.624 335.544V385.715V385.829ZM101.653 331.886V382.058L90.9098 380.572V330.401L101.653 331.886Z" fill="white"/>
<path d="M123.256 467.202C131.142 468.344 137.542 475.659 137.542 483.544V518.973L108.971 514.973V479.544C108.971 471.659 115.371 466.173 123.256 467.202Z" fill="white"/>
<path d="M525.755 554.516V308.115L222.783 319.315V565.83C238.098 565.258 511.469 555.201 525.755 554.63V554.516Z" fill="white"/>
<path d="M374.332 337.829C384.275 337.486 392.275 345.258 392.275 355.201V399.772L356.389 401.029V356.458C356.389 346.515 364.389 338.172 374.332 337.829Z" fill="#DDDFE1"/>
<path d="M461.874 334.629C471.817 334.286 479.817 341.943 479.817 351.886V396.458L443.931 397.829V353.258C443.931 343.315 451.932 334.972 461.874 334.629Z" fill="#DDDFE1"/>
<path d="M286.696 478.4C301.896 477.829 314.239 489.715 314.239 504.915V578.286L259.153 580.343V506.972C259.153 491.772 271.496 478.972 286.696 478.4Z" fill="#DDDFE1"/>
<path d="M286.654 341.144C296.482 340.801 304.597 348.458 304.597 358.401V402.973L268.825 404.344V359.773C268.825 349.83 276.825 341.487 286.768 341.144H286.654Z" fill="#DDDFE1"/>
<path d="M374.332 475.315C384.275 474.858 392.275 482.63 392.275 492.573V537.144L356.389 538.515V493.944C356.389 484.001 364.389 475.658 374.332 475.315Z" fill="#DDDFE1"/>
<path d="M266.539 47.0865C266.539 44.1151 266.539 37.8293 293.624 37.8293C320.71 37.8293 320.71 44.1151 320.71 47.0865V248.687C320.71 254.172 317.396 259.315 293.624 259.315C269.853 259.315 266.539 254.172 266.539 248.687V47.0865Z" fill="#DDDFE1"/>
<path d="M306.295 243.886V55.7715C302.866 56.1143 298.866 56.4572 293.609 56.4572C292.809 56.4572 292.352 56.4572 291.552 56.4572V244.915C292.238 244.915 292.809 244.915 293.609 244.915C299.895 244.915 303.666 244.457 306.295 244V243.886Z" fill="white"/>
<path d="M391.594 439.429L372.508 462.972C360.851 453.487 346.109 448.687 331.023 449.258C315.594 449.829 300.509 455.887 288.737 466.401L268.737 443.658C285.766 428.572 307.594 419.772 329.994 418.972C352.509 418.172 374.451 425.372 391.823 439.429H391.594Z" fill="#DDDFE1"/>
<path d="M441.171 460.114L541.743 356.686L731.457 383.428L835 482.286L815.572 482.971V593.829L647.686 600L456.943 573.143V462.4L441.171 460.228V460.114Z" fill="#DDDFE1"/>
<path d="M523.128 484.343C531.014 485.486 537.414 492.8 537.414 500.686V536.229L508.843 532.229V496.686C508.843 488.8 515.243 483.315 523.128 484.457V484.343Z" fill="white"/>
<path d="M589.866 493.828C597.752 494.971 604.152 502.285 604.152 510.057V545.485L575.58 541.485V506.057C575.58 498.171 581.98 492.685 589.866 493.828Z" fill="white"/>
<path d="M727.474 400.685C736.96 409.714 773.645 444.685 799.017 468.914V576.8C785.759 577.257 669.645 581.6 655.474 582.057V474.514L727.36 400.571L727.474 400.685Z" fill="white"/>
<path d="M727.802 426.515C735.917 426.172 742.545 432.572 742.545 440.686V469.486L713.059 470.629V441.829C713.059 433.715 719.688 426.857 727.802 426.515Z" fill="#DDDFE1"/>
<path d="M727.802 501.256C735.917 500.913 742.545 507.313 742.545 515.428V544.228L713.059 545.256V516.456C713.059 508.342 719.688 501.485 727.802 501.256Z" fill="#DDDFE1"/>
<path d="M523.328 456.572L511.556 454.857L590.528 380.8L523.442 456.572H523.328ZM555.328 375.772L488.128 451.657L476.356 450.057L555.442 375.886L555.328 375.772ZM593.728 466.515L581.956 464.8L660.585 391.086L593.728 466.515ZM558.528 461.6L546.756 459.886L625.499 385.943L558.528 461.486V461.6ZM628.928 471.543L617.156 469.943L695.671 396.343L628.928 471.658V471.543Z" fill="white"/>
</g>
</svg>
