<svg width="1440" height="276" viewBox="0 0 1440 276" fill="none" xmlns="http://www.w3.org/2000/svg">
<mask id="mask0_12_7801" style="mask-type:luminance" maskUnits="userSpaceOnUse" x="0" y="0" width="1440" height="277">
<path d="M1440 276.373L0 276.254V0H1440V276.373Z" fill="white"/>
</mask>
<g mask="url(#mask0_12_7801)">
<path d="M91.5855 38.5013C67.8694 39.2406 64.0547 37.4663 64.0547 32.9419C64.0547 31.5817 64.6757 30.3397 65.8585 29.3934L66.0655 29.216L91.615 12.5083L116.987 27.5304C118.436 28.4471 119.146 29.6891 119.146 31.1972C119.146 35.7216 115.331 37.7029 91.615 38.4422L91.5855 38.5013Z" fill="#02351A"/>
<path d="M70.471 32.6171C72.7775 33.0903 78.3073 33.6226 91.5848 33.2086C104.892 32.7946 110.422 31.937 112.728 31.316L91.5848 18.7778L70.4414 32.6171H70.471Z" fill="#4E7750"/>
<path d="M116.223 29.0982C115.483 28.5363 114.153 27.9153 108.15 27.5605C103.744 27.2944 97.8588 27.2648 91.5897 27.4718C85.3502 27.6492 79.4655 28.0631 75.0594 28.5954C69.0269 29.3347 67.7257 30.0148 66.9569 30.6358C66.3063 31.1385 65.9219 31.937 65.9219 32.765V111.602L117.258 110.005V31.1682C117.258 30.3402 116.873 29.5713 116.223 29.0982Z" fill="#02351A"/>
<path d="M102.379 28.3292L93.0938 20.5815L97.7365 28.5953C99.3924 28.5066 100.93 28.4179 102.379 28.3292Z" fill="#02351A"/>
<path d="M71.2148 106.131L111.994 104.889V33.2376C111.166 33.1193 109.805 32.942 107.706 32.8237C103.447 32.5575 97.7402 32.528 91.619 32.735C85.5273 32.9124 79.8201 33.2968 75.5618 33.8291C73.4327 34.0657 72.0724 34.3317 71.2444 34.5092V106.16L71.2148 106.131Z" fill="#4E7750"/>
<path d="M60.6262 109.856C59.1772 109.915 57.9648 108.762 57.9648 107.284V36.7266C57.9648 35.2776 59.1477 34.0357 60.6262 34.0061C62.1048 33.9469 63.2876 35.1002 63.2876 36.5788V107.136C63.2876 108.585 62.1048 109.827 60.6262 109.856Z" fill="#02351A"/>
<path d="M113.819 110.093C113.819 110.093 112.843 109.472 111.276 108.969C108.999 108.26 99.5656 106.751 91.9954 106.515C85.8741 106.308 76.9732 106.13 69.7578 107.402C76.7366 105.007 84.1886 103.321 91.9362 102.759C99.3586 102.227 108.053 101.902 113.819 102.759V110.093Z" fill="#02351A"/>
<path d="M113.819 102.67C113.819 102.67 112.843 102.049 111.276 101.546C108.999 100.836 99.5656 99.3283 91.9954 99.0917C85.8741 98.8847 76.9732 98.7073 69.7578 99.9788C76.7366 97.5836 84.1886 95.898 91.9362 95.3361C99.3586 94.8038 108.053 94.4786 113.819 95.3361V102.67Z" fill="#02351A"/>
<path d="M113.819 80.3738C113.819 80.3738 112.843 79.7528 111.276 79.2501C108.999 78.5404 99.5656 77.0619 91.9954 76.7957C85.8741 76.5887 76.9732 76.4113 69.7578 77.6828C76.7366 75.2875 84.1886 73.602 91.9362 73.0401C99.3586 72.5078 108.053 72.153 113.819 73.0401V80.3738Z" fill="#02351A"/>
<path d="M113.819 72.9516C113.819 72.9516 112.843 72.3306 111.276 71.8575C108.999 71.1478 99.5656 69.6397 91.9954 69.4031C85.8741 69.1961 76.9732 68.9891 69.7578 70.2902C76.7366 67.895 84.1886 66.2094 91.9362 65.6475C99.3586 65.1153 108.053 64.7604 113.819 65.6475V72.9812V72.9516Z" fill="#02351A"/>
<path d="M113.819 95.2485C113.819 95.2485 112.843 94.6275 111.276 94.1247C108.999 93.415 99.5656 91.9365 91.9954 91.6704C85.8741 91.4634 76.9732 91.2859 69.7578 92.5575C76.7366 90.1918 84.1886 88.5063 91.9362 87.9149C99.3586 87.3826 108.053 87.0573 113.819 87.9149V95.2485Z" fill="#02351A"/>
<path d="M113.819 87.8256C113.819 87.8256 112.843 87.2047 111.276 86.702C108.999 85.9923 99.5656 84.4841 91.9954 84.2475C85.8741 84.0405 76.9732 83.8632 69.7578 85.1347C76.7366 82.7395 84.1886 81.0539 91.9362 80.492C99.3586 79.9597 108.053 79.6049 113.819 80.492V87.8256Z" fill="#02351A"/>
<path d="M113.819 65.4987C113.819 65.4987 112.843 64.8777 111.276 64.375C108.999 63.6653 99.5656 62.1572 91.9954 61.9206C85.8741 61.7136 76.9732 61.5361 69.7578 62.8077C76.7366 60.4124 84.1886 58.7268 91.9362 58.165C99.3586 57.6327 108.053 57.2779 113.819 58.165V65.4987Z" fill="#02351A"/>
<path d="M113.819 58.0772C113.819 58.0772 112.843 57.4563 111.276 56.9536C108.999 56.2439 99.5656 54.7357 91.9954 54.4991C85.8741 54.2921 76.9732 54.0852 69.7578 55.3863C76.7366 52.991 84.1886 51.3055 91.9362 50.7436C99.3586 50.2113 108.053 49.8565 113.819 50.7436V58.0772Z" fill="#02351A"/>
<path d="M113.819 50.6546C113.819 50.6546 112.843 50.0336 111.276 49.5308C108.999 48.8211 99.5656 47.3425 91.9954 47.0764C85.8741 46.8694 76.9732 46.692 69.7578 47.9636C76.7366 45.5683 84.1886 43.8827 91.9362 43.3209C99.3586 42.7886 108.053 42.4633 113.819 43.3209V50.6546Z" fill="#02351A"/>
<path d="M113.819 43.2027C113.819 43.2027 112.843 42.5817 111.276 42.1086C108.999 41.3989 99.5656 39.8908 91.9954 39.6542C85.8741 39.4472 76.9732 39.2698 69.7578 40.5413C76.7366 38.1461 84.1886 36.4901 91.9362 35.8986C99.3586 35.3664 108.053 35.0115 113.819 35.8986V43.2323V43.2027Z" fill="#02351A"/>
<path d="M113.819 35.7803C113.819 35.7803 112.843 35.1593 111.276 34.6566C108.999 33.9469 99.5656 32.4683 91.9954 32.2021C85.8741 31.9951 76.9732 31.7882 69.7578 33.0893C76.7366 30.694 84.1886 29.0085 91.9362 28.4466C99.3586 27.9143 108.053 27.5595 113.819 28.4466V35.7803Z" fill="#02351A"/>
<path d="M149.372 77.0627C149.283 76.0572 149.49 75.111 149.49 74.1055C149.49 72.6861 148.899 71.4441 148.751 70.0838C148.455 68.2208 148.603 66.417 148.514 64.554C148.396 62.1587 147.598 59.9113 147.272 57.5456C146.947 55.0025 147.006 52.4594 146.622 49.9163C146.267 47.4323 145.38 45.037 145.114 42.553C144.877 41.1927 145.173 39.8325 144.788 38.4723C144.522 37.4668 144.138 36.4614 143.812 35.4855C143.931 34.8645 142.748 33.8591 142.275 33.7703C141.772 33.6816 140.501 34.8645 140.294 35.4559C140.234 35.6925 139.761 37.7921 139.495 38.6497C138.726 41.1928 138.874 43.7358 138.49 46.3381C138.135 48.6151 137.573 50.833 137.159 53.11C136.597 56.0375 136.597 58.9946 136.331 61.9813C136.242 62.9276 135.976 63.7556 135.74 64.6427C135.414 65.8551 135.503 66.7719 135.621 67.9843C135.769 69.5515 135.178 71.3554 134.882 72.834C134.35 75.4067 134.734 77.9203 134.586 80.5225C134.498 82.1194 134.113 83.6275 134.054 85.2243C133.936 87.8858 134.291 90.5767 134.852 93.179C135.148 94.4801 135.562 95.7221 135.917 97.0232C136.449 99.0341 137.07 100.808 138.963 101.725C142.009 103.204 145.912 102.405 147.805 99.3889C149.401 96.8162 149.254 93.1198 149.697 90.074C150.022 87.7674 150.259 85.4609 150.082 83.0952C149.934 81.0844 149.52 79.1031 149.342 77.0923L149.372 77.0627Z" fill="#02351A"/>
<path d="M158.268 82.0603C158.357 81.1436 158.15 80.286 158.15 79.3989C158.15 78.0978 158.741 77.0036 158.889 75.732C159.185 74.0465 159.037 72.3905 159.126 70.7345C159.244 68.5462 160.042 66.5058 160.368 64.3767C160.693 62.0701 160.634 59.7636 161.018 57.457C161.373 55.2096 162.26 53.0509 162.556 50.8035C162.793 49.5615 162.497 48.3491 162.881 47.1071C163.147 46.1904 163.532 45.2737 163.857 44.3866C163.739 43.8247 164.922 42.908 165.395 42.8488C165.898 42.7601 167.169 43.8543 167.376 44.357C167.435 44.564 167.908 46.4566 168.175 47.2254C168.943 49.532 168.796 51.8385 169.18 54.1747C169.535 56.2446 170.097 58.2554 170.511 60.2958C171.073 62.9572 171.073 65.6187 171.339 68.3392C171.427 69.1968 171.694 69.9361 171.93 70.7641C172.285 71.8582 172.167 72.6862 172.048 73.8099C171.901 75.2589 172.492 76.8557 172.788 78.216C173.29 80.5521 172.936 82.8291 173.083 85.1652C173.172 86.6142 173.557 87.9745 173.616 89.4235C173.734 91.8483 173.379 94.2732 172.817 96.6389C172.522 97.8217 172.108 98.9454 171.753 100.128C171.22 101.932 170.599 103.559 168.707 104.387C165.661 105.747 161.758 105.037 159.865 102.287C158.268 99.9509 158.416 96.6094 157.973 93.8297C157.647 91.7301 157.411 89.6601 157.588 87.5014C157.706 85.668 158.15 83.8937 158.298 82.0603H158.268Z" fill="#02351A"/>
<path d="M31.1102 64.2292C31.0214 63.3125 31.2284 62.455 31.2284 61.5679C31.2284 60.2667 30.637 59.1726 30.4891 57.9306C30.1934 56.245 30.3413 54.589 30.2526 52.933C30.1343 50.7448 29.3359 48.7044 29.0106 46.5752C28.6853 44.2687 28.7445 41.9621 28.36 39.6556C28.0052 37.4082 27.118 35.2199 26.8519 32.9724C26.6153 31.7305 26.911 30.518 26.5266 29.276C26.2605 28.3593 25.876 27.4427 25.5507 26.5555C25.669 25.9937 24.4862 25.0769 24.0131 25.0178C23.5103 24.9291 22.2388 26.0232 22.0318 26.5259C21.9726 26.7329 21.4995 28.6255 21.2334 29.3944C20.4645 31.7009 20.6124 34.0074 20.2279 36.3731C19.8731 38.4431 19.3408 40.454 18.8972 42.4944C18.3354 45.1558 18.3354 47.8172 18.0692 50.5378C17.9805 51.3953 17.7144 52.1346 17.4778 52.9626C17.123 54.0568 17.2412 54.9143 17.3595 56.0085C17.5074 57.4279 16.916 59.0543 16.6203 60.4145C16.088 62.7507 16.4724 65.0277 16.3245 67.3934C16.2358 68.8424 15.881 70.2027 15.7923 71.6517C15.674 74.0765 16.0288 76.5012 16.5907 78.8669C16.8864 80.0498 17.3004 81.1736 17.6552 82.3564C18.1875 84.1603 18.8085 85.7867 20.7011 86.6147C23.7469 87.975 27.6503 87.2652 29.5429 84.5151C31.1397 82.1789 30.9918 78.8374 31.4354 76.0577C31.7607 73.9582 31.9973 71.8881 31.8199 69.7295C31.7016 67.896 31.258 66.1218 31.0806 64.2884L31.1102 64.2292Z" fill="#02351A"/>
<path d="M393.866 116.628C391.973 116.244 390.14 116.333 388.484 116.776C386.768 113.671 383.575 111.187 379.524 110.359C378.341 110.123 377.158 110.034 376.034 110.093C374.97 107.195 372.19 104.8 368.612 104.12C364.531 103.321 360.657 105.007 358.853 108.023C357.404 107.284 355.837 106.692 354.151 106.397C352.436 106.071 350.721 106.071 349.124 106.278C347.054 101.724 342.471 98.1759 336.764 97.2001C331.855 96.3721 327.153 97.7028 323.871 100.394C321.534 98.6786 318.725 97.4367 315.62 96.9636C310.859 96.2243 306.364 97.3184 302.964 99.6841C301.485 95.2484 297.256 91.6703 291.904 90.8719C288.74 90.3988 285.694 91.0197 283.24 92.38C280.342 89.1567 276.143 86.8206 271.322 86.1405C264.876 85.2533 258.932 87.5303 255.295 91.6407C252.959 90.1621 250.268 89.1567 247.311 88.7723C245.684 88.5653 244.087 88.5653 242.55 88.7132C241.13 84.7802 237.286 81.616 232.495 80.995C228.474 80.4627 224.777 81.8526 222.412 84.3662C219.928 80.5515 215.61 77.7127 210.465 77.0621C206.502 76.5594 202.776 77.4761 199.849 79.3686C196.744 76.3524 192.574 74.2528 187.813 73.6909C180.687 72.8334 174.211 75.6427 170.603 80.522C169.302 80.0784 167.941 79.7531 166.492 79.5757C163.535 79.2504 160.697 79.5756 158.124 80.4332L158.183 79.9305C158.567 75.0217 154.427 70.5268 148.986 69.9354C144.107 69.4031 139.819 72.1533 138.725 76.2341C137.276 75.6427 135.679 75.2287 134.053 75.0513C130.002 74.6077 126.216 75.6131 123.259 77.5943C123.555 76.8255 123.732 76.0271 123.792 75.1695C124.146 69.965 119.74 65.2336 113.974 64.6126C108.178 63.9916 103.24 67.7176 102.914 72.9221C102.855 73.8684 102.944 74.8147 103.21 75.7018C99.9572 71.8576 95.078 69.137 89.4594 68.5456C87.9809 68.3977 86.5319 68.4273 85.142 68.5456C81.8892 64.1395 76.6255 60.9754 70.5043 60.3544C62.4313 59.5264 55.2751 63.4002 52.1701 69.4919C51.6083 63.7846 46.4925 58.9053 40.0164 58.2843C33.629 57.6634 28.1879 61.3893 26.9163 66.7713C26.2066 66.653 25.4969 66.5347 24.7576 66.5051C21.8005 66.3573 18.9912 67.0374 16.5664 68.3681C13.1066 63.7846 7.57673 60.4726 1.13021 59.8812C0.361357 59.8221 -0.377907 59.7925 -1.11719 59.8221V120.118C3.64378 120.236 8.28644 118.698 11.6871 116.274C14.7034 119.526 18.9321 121.567 23.6044 121.567C29.6073 121.567 34.7231 118.255 37.3254 113.316C39.218 117.309 43.4762 120.206 48.4737 120.473C52.8798 120.709 56.7241 118.787 58.9124 115.741C61.6329 117.427 64.7971 118.432 68.1682 118.432C70.2677 118.432 72.2786 118.048 74.1416 117.368C77.4831 120.354 81.9188 122.365 86.8868 122.631C90.7606 122.868 94.3683 122.01 97.3846 120.384C99.9573 122.868 103.535 124.524 107.468 124.731C113.826 125.115 119.267 121.744 121.396 116.717C121.515 116.835 121.692 116.924 121.81 117.013C124.56 121.064 129.144 123.755 134.289 123.785C139.967 123.785 144.817 120.532 147.123 115.771C149.341 122.365 155.817 126.505 163.683 127.037C169.982 127.481 175.6 124.879 178.942 120.65C180.687 121.271 182.52 121.655 184.472 121.803C189.854 122.188 194.733 120.502 198.282 117.486C200.884 119.586 204.137 120.857 207.685 120.887C208.188 120.887 208.661 120.887 209.164 120.827C210.672 123.814 213.836 126.002 217.621 126.328C222.441 126.712 226.581 123.873 227.616 119.793C229.657 126.476 236.103 131.71 244.028 132.419C250.386 132.952 256.152 130.409 259.553 126.121C261.948 127.481 264.639 128.368 267.567 128.664C273.954 129.226 279.721 126.712 283.18 122.454C282.737 123.311 282.471 124.258 282.412 125.293C282.116 129.906 285.96 134.046 291.017 134.549C295.098 134.963 298.735 132.893 300.184 129.64C302.993 132.745 307.044 134.903 311.687 135.406C317.483 136.027 322.806 133.928 326.207 130.142C328.099 131.207 330.258 131.976 332.594 132.242C334.782 132.508 336.882 132.331 338.834 131.828C341.111 135.554 345.191 138.334 350.1 138.984C357.168 139.901 363.614 136.057 365.655 130.083C367.311 133.721 370.889 136.589 375.384 137.269C378.4 137.772 381.327 137.151 383.693 135.82C385.231 137.594 387.419 138.866 389.933 139.309C395.374 140.285 401.377 136.678 402.796 131.739C404.718 125.027 401.17 118.107 393.895 116.599L393.866 116.628Z" fill="#02351A"/>
<path d="M1300.19 312.272C956.012 190.38 522.616 113.051 85.3467 105.303C-5.46649 103.707 -94.7124 105.126 -181.918 109.384V312.272H1300.19Z" fill="#4E7750"/>
<path d="M35.3739 115.149C146.059 130.113 268.425 158.856 375.266 194.785C468.858 226.633 561.357 264.809 649.568 312.271H684.107C584.985 259.22 481.988 219.063 377.276 186.327C269.401 153.089 146.325 127.185 35.3739 115.12V115.149ZM82.0669 114.854C203.25 128.811 332.476 155.928 450.11 191.65C554.29 223.735 657.464 262.621 756.054 312.271H791.214C681.387 257.003 567.419 216.283 451.855 183.489C333.274 150.369 203.457 126.032 82.0669 114.854ZM-6.82422 115.652C93.5109 131.857 203.516 162.582 299.741 198.57C382.954 230.034 465.073 267.264 543.2 312.271H577.089C488.346 261.734 396.113 222.404 302.047 189.876C204.669 156.638 93.8658 128.811 -6.82422 115.623V115.652ZM765.162 181.33C609.203 149.511 451.707 128.486 293.797 117.545C451.589 130.852 608.73 154.183 764.098 188.279C905.921 219.979 1047.21 258.688 1183.77 312.271H1220.71C1071.99 253.395 919.11 213.385 765.192 181.3L765.162 181.33ZM128.198 114.883C259.79 128.131 396.616 153.769 524.955 189.255C639.721 221.399 753.629 260.788 862.688 312.271H898.41C777.789 255.169 652.91 214.124 526.493 181.359C397.296 148.417 259.967 125.44 128.168 114.854L128.198 114.883ZM230.574 116.125C381.328 128.959 531.372 152.527 679.435 187.215C813.866 219.24 947.676 258.57 1076.55 312.301H1113.16C972.279 253.129 827.084 212.38 680.648 179.97C531.904 147.648 381.475 126.505 230.574 116.155V116.125ZM177.464 115.386C319.139 128.22 462.087 152.557 600.776 187.717C725.862 219.861 850.179 259.398 969.558 312.301H1005.75C874.605 253.839 739.051 212.764 602.165 180.117C462.708 147.441 319.317 125.647 177.464 115.386Z" fill="#02351A"/>
<path d="M110.098 102.819C10.5315 101.666 -86.7578 102.168 -181.918 107.432V109.384C-94.7124 105.126 -5.46648 103.706 85.3467 105.303C522.616 113.051 956.012 190.379 1300.19 312.272H1336.27C988.777 187.836 507.18 107.462 110.098 102.819Z" fill="#02351A"/>
<path d="M228.318 190.616C312.093 222.79 391.285 264.544 470.033 312.272H436.854C258.984 190.794 47.2536 134.076 -43.0273 116.481C47.6676 131.001 141.113 157.497 228.318 190.646V190.616Z" fill="#02351A"/>
<path d="M166.696 192.066C240.091 223.914 309.347 264.87 378.278 312.303H346.43C193.369 195.053 8.22356 135.023 -70.8203 117.517C8.57841 131.948 90.402 158.976 166.666 192.066H166.696Z" fill="#02351A"/>
<path d="M105.073 193.485C168.059 225.126 227.409 265.136 286.551 312.302H256.063C127.843 199.281 -30.7479 135.939 -98.5547 118.522C-30.4226 132.864 39.6908 160.631 105.102 193.485H105.073Z" fill="#02351A"/>
<path d="M43.4425 194.904C95.9905 226.368 145.463 265.431 194.788 312.302H165.631C62.2202 203.509 -69.7857 136.856 -126.355 119.557C-69.5196 133.81 -11.1164 162.287 43.4425 194.934V194.904Z" fill="#02351A"/>
<path d="M-18.2095 196.324C23.9295 227.61 63.4662 265.727 103.003 312.272H75.206C-3.39433 207.709 -108.816 137.713 -154.148 120.533C-108.609 134.697 -61.8862 163.884 -18.2095 196.294V196.324Z" fill="#02351A"/>
<path d="M-79.8381 197.743C-48.2265 228.941 -18.4778 266.023 11.2413 312.272H-15.225C-68.9855 211.937 -147.852 138.63 -181.918 121.538C-147.674 135.614 -112.751 165.629 -79.8381 197.714V197.743Z" fill="#02351A"/>
<path d="M1244.06 80.7294C1238.8 80.7294 1234.19 83.4795 1231.53 87.5899C1230.49 87.4716 1229.43 87.4125 1228.33 87.5012C1223.98 87.8265 1220.23 89.8374 1217.72 92.7058C1217.89 92.0256 1217.95 91.2863 1217.92 90.547C1217.63 86.5253 1213.78 83.5387 1209.29 83.8935C1204.79 84.2484 1201.42 87.7969 1201.75 91.8186C1201.81 92.41 1201.92 93.0015 1202.13 93.5338C1198.76 90.6949 1194.06 89.8965 1189.92 91.5524C1188.77 88.7727 1185.72 86.9098 1182.23 87.2055C1178 87.5603 1174.87 90.9315 1175.16 94.7166L1175.22 95.101C1173.24 94.3913 1171.05 94.066 1168.75 94.273C1167.65 94.3617 1166.59 94.5983 1165.58 94.894C1162.74 91.0793 1157.69 88.7432 1152.19 89.2459C1148.52 89.5712 1145.3 91.1089 1142.9 93.3563C1140.62 91.8482 1137.73 91.0497 1134.68 91.3454C1130.72 91.7298 1127.38 93.8294 1125.48 96.6978C1123.65 94.7165 1120.78 93.5633 1117.65 93.8886C1113.92 94.273 1110.96 96.6091 1109.9 99.6254C1108.72 99.4776 1107.47 99.4479 1106.2 99.5662C1103.93 99.8028 1101.83 100.542 1100.05 101.607C1097.21 98.3538 1092.57 96.4613 1087.6 97.0231C1083.88 97.4371 1080.65 99.1523 1078.41 101.577C1076.48 100.453 1074.15 99.9211 1071.69 100.217C1067.55 100.69 1064.3 103.381 1063.18 106.752C1060.51 104.86 1057.03 103.913 1053.33 104.386C1050.93 104.682 1048.75 105.569 1046.97 106.841C1044.4 104.682 1040.79 103.588 1036.98 104.091C1032.54 104.712 1029.02 107.344 1027.45 110.803C1026.21 110.596 1024.88 110.596 1023.55 110.803C1022.22 110.981 1021.01 111.424 1019.91 111.957C1018.49 109.62 1015.51 108.231 1012.34 108.763C1009.59 109.206 1007.43 111.01 1006.64 113.199C1005.75 113.139 1004.83 113.139 1003.92 113.317C1000.78 113.879 998.297 115.712 997.025 118.078C995.724 117.723 994.275 117.605 992.826 117.9C988.391 118.758 985.67 122.721 986.735 126.535C987.799 130.38 991.998 132.716 996.168 131.888C998.09 131.503 999.746 130.498 1000.84 129.108C1002.73 130.084 1005.04 130.527 1007.35 130.113C1010.78 129.522 1013.47 127.274 1014.56 124.436C1016.39 129.019 1021.57 131.888 1027.01 131.06C1030.77 130.498 1033.81 128.28 1035.41 125.382C1036.95 125.737 1038.57 125.826 1040.26 125.619C1042.06 125.382 1043.69 124.761 1045.11 123.903C1047.89 126.742 1052.12 128.309 1056.58 127.718C1060.16 127.275 1063.21 125.53 1065.25 123.105C1066.52 125.589 1069.42 127.127 1072.55 126.742C1076.45 126.269 1079.26 123.016 1078.82 119.468C1078.73 118.699 1078.46 117.96 1078.11 117.309C1080.98 120.562 1085.56 122.395 1090.47 121.863C1092.72 121.626 1094.79 120.887 1096.56 119.793C1099.4 123.046 1103.95 124.938 1108.86 124.436C1114.96 123.785 1119.75 119.675 1121.02 114.47C1121.99 117.605 1125.31 119.734 1129.03 119.379C1132.85 118.995 1135.74 116.156 1135.92 112.755H1136.66C1138.67 112.518 1140.5 111.897 1142.1 110.951C1145.06 114.086 1149.58 115.89 1154.52 115.446C1156 115.298 1157.45 114.973 1158.75 114.47C1161.53 117.693 1165.97 119.616 1170.84 119.172C1177.62 118.581 1182.85 113.642 1183.53 107.698C1183.77 108.171 1184 108.645 1184.3 109.088C1187.91 114.618 1195.3 116.215 1200.86 112.607C1201.84 111.957 1202.69 111.217 1203.43 110.36C1205.41 113.938 1209.58 116.244 1214.29 115.86C1217.33 115.623 1220.02 114.293 1221.91 112.341C1224.34 113.553 1227.18 114.145 1230.14 113.938C1233.92 113.642 1237.26 112.075 1239.69 109.768C1241.05 110.182 1242.5 110.389 1244 110.389C1252.23 110.389 1258.91 103.706 1258.91 95.4855C1258.91 87.2647 1252.23 80.5815 1244 80.5815L1244.06 80.7294Z" fill="#02351A"/>
<path d="M1358.83 56.8056L1330 31.5517L1298.09 13.3359L1266.86 31.1674L1251.13 54.2329H1255.21V109.679H1366.78V71.2955H1368.5L1358.83 56.8056Z" fill="#02351A"/>
<path d="M1260.51 104.386H1339.11V54.2333L1326.39 35.6035L1299.81 20.4038L1273.22 35.6035L1260.51 54.2333V104.386Z" fill="#4E7750"/>
<path d="M1260.51 104.386H1339.11V54.2333L1326.39 35.6035L1299.81 20.4038L1273.22 35.6035L1260.51 54.2333V104.386Z" fill="#4E7750"/>
<path d="M1308.88 36.0762H1290.73V54.2329H1308.88V36.0762Z" fill="#02351A"/>
<path d="M1283.81 44.9478H1274.56V54.2036H1283.81V44.9478Z" fill="#02351A"/>
<path d="M1325.06 44.9475H1315.81V54.2033H1325.06V44.9475Z" fill="#02351A"/>
<path d="M1352.53 84.6617L1356.17 86.0515V80.1964L1352.53 77.6533V84.6617Z" fill="#4E7750"/>
<path d="M1296.25 62.1284H1272.97L1284.59 79.7824L1296.25 62.1284Z" fill="#02351A"/>
<path d="M1284.59 86.7617L1272.97 104.386H1296.25L1284.59 86.7617Z" fill="#02351A"/>
<path d="M1282.29 83.2718L1271.32 66.6232V99.8908L1282.29 83.2718Z" fill="#02351A"/>
<path d="M1286.91 83.2717L1297.88 99.8907V66.623L1286.91 83.2717Z" fill="#02351A"/>
<path d="M1301.72 66.623V99.8907L1312.69 83.2717L1301.72 66.623Z" fill="#02351A"/>
<path d="M1317.31 83.2717L1328.28 99.8907V66.623L1317.31 83.2717Z" fill="#02351A"/>
<path d="M1315 86.7617L1303.38 104.386H1326.62L1315 86.7617Z" fill="#02351A"/>
<path d="M1326.62 62.1284H1303.38L1315 79.7824L1326.62 62.1284Z" fill="#02351A"/>
<path d="M1387.31 20.9956C1390.06 14.3421 1394.85 2.77969 1396.03 0H1375.98C1377.14 2.77969 1381.93 14.342 1384.68 21.0251C1385.12 20.9364 1385.56 20.9069 1386.01 20.9069C1386.45 20.9069 1386.9 20.966 1387.34 21.0251L1387.31 20.9956ZM1413.18 15.4066C1410.7 12.9226 1401.47 3.69641 1398.99 1.21243C1397.84 4.0217 1393.05 15.5544 1390.3 22.2375C1391.04 22.7402 1391.66 23.3908 1392.16 24.1005L1413.18 15.4066ZM1381.66 28.4179C1381.66 30.7836 1383.61 32.7354 1385.98 32.7354C1388.34 32.7354 1390.3 30.7836 1390.3 28.4179C1390.3 26.0522 1388.37 24.1005 1385.98 24.1005C1383.58 24.1005 1381.66 26.0226 1381.66 28.4179ZM1381.66 22.2375L1372.97 1.21243L1358.77 15.4066L1379.77 24.1005C1380.27 23.3612 1380.92 22.7402 1381.63 22.2375H1381.66ZM1357.53 18.3933V38.4426C1360.31 37.2893 1371.87 32.4988 1378.56 29.7486C1378.47 29.3051 1378.44 28.891 1378.44 28.4179C1378.44 27.9448 1378.5 27.5308 1378.56 27.0872C1371.9 24.3371 1360.34 19.5466 1357.53 18.3933ZM1384.62 35.8403C1381.84 42.4938 1377.08 54.0562 1375.92 56.8655H1395.97C1394.82 54.0858 1390.03 42.5234 1387.25 35.8403C1386.84 35.929 1386.39 35.9586 1385.92 35.9586C1385.45 35.9586 1385.03 35.929 1384.59 35.8403H1384.62ZM1379.77 32.7354L1358.77 41.4293L1372.97 55.6235L1381.66 34.5983C1380.92 34.0956 1380.3 33.4451 1379.8 32.7354H1379.77ZM1398.96 55.6235C1401.44 53.1395 1410.67 43.9133 1413.15 41.4293L1392.13 32.7354C1391.63 33.4746 1390.98 34.0956 1390.27 34.5983C1391.57 37.7624 1398.96 55.6235 1398.96 55.6235ZM1393.37 29.7486C1400.03 32.4988 1411.59 37.2893 1414.37 38.4426V18.3933C1411.59 19.5466 1400.03 24.3371 1393.37 27.0872C1393.43 27.5308 1393.49 27.9448 1393.49 28.4179C1393.49 28.891 1393.43 29.3051 1393.37 29.7486Z" fill="#02351A"/>
<path d="M1371.07 125.027H1376.39L1386 51.4839H1380.65L1371.07 125.027Z" fill="#02351A"/>
<path d="M1391.33 51.4839H1386.01L1395.59 125.027H1400.91L1391.33 51.4839Z" fill="#02351A"/>
<path d="M1396.95 67.0088H1375.07V72.302H1396.95V67.0088Z" fill="#02351A"/>
<path d="M1366.4 108.29V93.6226H1366.46C1366.46 93.2382 1366.46 92.8537 1366.55 92.4693C1367.23 88.8912 1370.89 86.6734 1374.83 87.5014C1374.97 87.5014 1375.09 87.5901 1375.21 87.6197C1377.04 84.1007 1381.27 82.1194 1385.74 83.0657C1385.94 83.1248 1386.12 83.184 1386.3 83.2431C1387.98 77.2697 1394.46 73.662 1401.26 75.111C1403.24 75.525 1405.02 76.3234 1406.55 77.388C1409.25 74.7561 1413.09 73.2185 1417.26 73.2185C1417.17 72.3609 1417.11 71.4738 1417.26 70.5866C1418.18 65.6778 1423.23 62.632 1428.64 63.7557C1432.05 64.4654 1434.74 66.7424 1436.04 69.5221C1439.73 67.6295 1444.23 66.9494 1448.84 67.9252C1450.14 68.1914 1451.36 68.5758 1452.51 69.049C1456.71 62.3659 1465.34 58.7286 1474.33 60.6211C1477.11 61.2126 1479.66 62.2771 1481.9 63.667C1484.62 59.6453 1489.92 57.4866 1495.42 58.6694C1500.71 59.7931 1504.76 63.6374 1506.03 68.221C1510.68 64.3767 1517.24 62.6615 1524.07 64.0809C1533.95 66.1509 1541.07 74.2239 1541.61 83.0953C1542.14 83.0953 1542.64 83.1544 1543.17 83.2727C1548.02 84.3077 1551.42 88.418 1551.37 92.8242V107.373C1488.53 105.51 1426.75 105.836 1366.31 108.201L1366.4 108.29Z" fill="#02351A"/>
<path d="M139.93 312.272C484.109 190.38 917.534 113.051 1354.77 105.303C1445.59 103.707 1534.83 105.126 1622.04 109.384V312.272H139.93Z" fill="#4E7750"/>
<path d="M1062.86 186.357C958.144 219.093 855.147 259.25 756.025 312.301H790.564C878.745 264.839 971.274 226.663 1064.87 194.815C1171.68 158.885 1294.07 130.142 1404.76 115.179C1293.81 127.244 1170.73 153.149 1062.86 186.387V186.357ZM988.277 183.489C872.713 216.283 758.745 257.003 648.918 312.271H684.078C782.639 262.621 885.842 223.735 990.022 191.65C1107.66 155.928 1236.91 128.812 1358.07 114.854C1236.68 126.032 1106.83 150.399 988.247 183.489H988.277ZM1138.11 189.906C1044.05 222.434 951.786 261.764 863.072 312.301H896.961C975.088 267.264 1057.18 230.063 1140.42 198.6C1236.65 162.612 1346.65 131.857 1446.99 115.682C1346.3 128.871 1235.49 156.697 1138.11 189.935V189.906ZM219.484 312.301H256.419C392.979 258.718 534.27 219.98 676.094 188.309C831.461 154.213 988.602 130.882 1146.39 117.575C988.484 128.516 830.988 149.541 675.029 181.36C521.111 213.415 368.228 253.454 219.514 312.331L219.484 312.301ZM913.639 181.389C787.222 214.154 662.343 255.199 541.722 312.301H577.444C686.503 260.818 800.411 221.429 915.177 189.285C1043.52 153.799 1180.34 128.161 1311.93 114.913C1180.16 125.5 1042.81 148.477 913.61 181.419L913.639 181.389ZM759.514 179.94C613.077 212.35 467.883 253.099 327.005 312.271H363.615C492.486 258.541 626.296 219.211 760.727 187.185C908.79 152.498 1058.83 128.93 1209.59 116.096C1058.69 126.446 908.257 147.589 759.514 179.911V179.94ZM838.026 180.118C701.14 212.735 565.586 253.809 434.438 312.301H470.633C590.012 259.369 714.329 219.832 839.415 187.718C978.134 152.587 1121.05 128.25 1262.73 115.386C1120.9 125.647 977.483 147.442 838.026 180.118Z" fill="#02351A"/>
<path d="M1330.03 102.819C1429.59 101.666 1526.88 102.169 1622.04 107.432V109.384C1534.84 105.126 1445.62 103.706 1354.78 105.303C917.508 113.051 484.112 190.38 139.932 312.272H103.855C451.347 187.837 932.944 107.462 1330.03 102.819Z" fill="#02351A"/>
<path d="M1238 81.5274C1237.91 80.522 1238.12 79.5757 1238.12 78.5703C1238.12 77.1509 1237.52 75.9088 1237.38 74.5485C1237.08 72.7151 1237.23 70.8817 1237.14 69.0187C1237.02 66.6235 1236.22 64.3761 1235.9 62.0104C1235.57 59.4672 1235.63 56.9241 1235.25 54.3809C1234.89 51.897 1234 49.5017 1233.71 47.0177C1233.47 45.6575 1233.77 44.2972 1233.38 42.9369C1233.12 41.9315 1232.73 40.9261 1232.41 39.9503C1232.53 39.3293 1231.34 38.3238 1230.87 38.2351C1230.37 38.1464 1229.1 39.3588 1228.92 39.9207C1228.83 40.1572 1228.39 42.2568 1228.12 43.1143C1227.35 45.6574 1227.5 48.2006 1227.11 50.8029C1226.76 53.0798 1226.23 55.2977 1225.78 57.5747C1225.22 60.5022 1225.22 63.4594 1224.96 66.4461C1224.87 67.3923 1224.6 68.2203 1224.36 69.1074C1224.04 70.3199 1224.13 71.2366 1224.25 72.4786C1224.39 74.0755 1223.8 75.8497 1223.51 77.3282C1222.97 79.9009 1223.36 82.4145 1223.21 85.0168C1223.12 86.6136 1222.74 88.1217 1222.68 89.7186C1222.56 92.38 1222.92 95.071 1223.48 97.6733C1223.77 98.9744 1224.19 100.216 1224.54 101.517C1225.07 103.528 1225.7 105.303 1227.59 106.219C1230.63 107.698 1234.54 106.899 1236.43 103.883C1238.03 101.281 1237.88 97.6141 1238.32 94.5683C1238.65 92.2618 1238.88 89.9552 1238.71 87.5895C1238.56 85.5786 1238.14 83.5973 1237.97 81.5865L1238 81.5274Z" fill="#02351A"/>
<path d="M1203.67 247.807C1216.39 239.764 1231.77 231.129 1249.39 223.293C1258.23 219.448 1268.85 215.87 1278.78 212.677C1283.81 211.109 1290.08 209.601 1295.37 208.123C1298.33 207.058 1302.09 206.674 1306.2 202.859C1310.25 197.95 1306.82 194.372 1306.32 193.012C1297.86 182.751 1328.46 175.86 1345.97 171.425C1365.99 166.693 1385.12 162.938 1401.36 159.478C1409.22 158.088 1416.11 156.373 1422.09 154.54C1422.09 154.54 1378.03 161.992 1357.15 165.688C1346.74 167.64 1312.11 173.909 1302.68 182.869C1297.77 186.684 1298.92 193.544 1302.23 197.773C1301.52 197.95 1302.44 197.832 1300.76 198.216C1295.55 199.458 1289.81 200.819 1284.31 202.208C1273.31 205.047 1262.67 208.389 1252.73 212.056C1232.89 219.448 1215.5 227.847 1201.13 235.653C1172.92 251.149 1137.29 276.935 1134.42 278.975C1146.63 279.448 1148.7 280.07 1159.02 280.69C1166.27 275.368 1191.85 255.318 1203.67 247.778V247.807Z" fill="#02351A"/>
<path d="M1339.05 226.397C1340.89 225.244 1344.73 224.83 1347.16 220.69C1348.78 216.934 1347.33 213.918 1346.18 211.967C1342.81 206.259 1346.15 199.961 1353.13 194.815C1357.48 191.621 1362.92 189.108 1369.51 186.565C1382.35 181.626 1397.07 177.279 1407.45 173.494C1423.36 168.645 1431.55 163.174 1435.55 158.206C1440.43 152.203 1440.04 148.093 1440.04 148.093C1440.04 148.093 1439.18 152.854 1434.78 157.585C1434.78 157.585 1429.72 164.534 1407.31 171.129C1397.28 174.086 1389.3 176.274 1375.9 180.355C1369.22 182.514 1349.08 188.221 1342.78 197.536C1335.62 208.122 1341.72 212.735 1340.47 215.722C1338.97 219.3 1322.58 222.996 1310.05 230.833C1265.22 258.926 1250.05 286.989 1248.3 289.236C1256.34 289.68 1261.99 290.419 1268.79 291.04C1273.14 285.244 1301.91 244.406 1339.05 226.397Z" fill="#02351A"/>
<path d="M1278.72 223.352C1280.97 224.15 1285.79 222.257 1290.64 219.862C1295.52 217.467 1298.62 215.456 1296.35 214.658C1294.1 213.859 1288.24 214.983 1283.36 217.378C1278.49 219.773 1276.45 222.583 1278.69 223.352H1278.72Z" fill="#02351A"/>
<path d="M1229.63 248.754C1231.76 249.611 1235.84 247.866 1239.89 245.619C1243.95 243.372 1246.49 241.45 1244.36 240.592C1242.23 239.735 1237.11 240.681 1233.06 242.928C1228.98 245.176 1227.53 247.896 1229.63 248.754Z" fill="#02351A"/>
<path d="M1336.42 185.529C1337.99 186.209 1341.42 185.086 1344.94 183.607C1348.46 182.129 1350.71 180.828 1349.14 180.177C1347.57 179.497 1343.4 180.029 1339.88 181.508C1336.36 182.986 1334.86 184.879 1336.42 185.529Z" fill="#02351A"/>
<path d="M1267.14 243.549C1270.15 244.584 1276.63 241.657 1283.17 237.99C1289.73 234.323 1293.9 231.307 1290.88 230.272C1287.87 229.237 1280 231.1 1273.44 234.767C1266.87 238.434 1264.12 242.514 1267.14 243.549Z" fill="#02351A"/>
<path d="M1262.16 171.986C1262.66 172.282 1262.95 172.873 1262.95 173.583V185.826C1262.95 187.008 1262.16 188.339 1261.09 188.96C1260.41 189.345 1259.73 189.374 1259.2 189.049C1258.7 188.753 1258.43 188.162 1258.43 187.452V181.981C1256.6 182.75 1249.8 185.264 1248.82 185.678V191.651C1248.82 192.864 1247.96 194.283 1246.84 194.904C1246.13 195.288 1245.42 195.229 1244.86 194.904C1244.35 194.579 1244.06 193.987 1244.06 193.278V187.511C1242.23 188.251 1234.24 191.385 1233.41 191.74V198.186C1233.41 199.458 1232.53 200.907 1231.31 201.558C1230.57 201.972 1229.81 201.972 1229.24 201.617C1228.71 201.291 1228.45 200.7 1228.45 199.961V193.721C1226.97 194.313 1224.22 195.407 1224.22 195.407C1224.22 195.407 1218.54 197.743 1216.73 198.512V205.786C1216.73 207.117 1215.79 208.566 1214.52 209.216C1213.72 209.601 1212.95 209.542 1212.36 209.157C1211.86 208.803 1211.53 208.181 1211.53 207.442V200.7C1209.52 201.558 1199.76 205.697 1198.79 206.111V214.037C1198.79 215.397 1197.78 216.905 1196.45 217.556C1195.62 217.94 1194.82 217.94 1194.2 217.526C1193.67 217.171 1193.37 216.55 1193.37 215.811V208.536C1191.3 209.483 1179.3 214.746 1178.32 215.19V223.913C1178.32 225.303 1177.26 226.841 1175.87 227.492C1175.01 227.906 1174.15 227.876 1173.53 227.432C1173 227.078 1172.7 226.427 1172.7 225.688V217.763C1170.57 218.738 1157.59 224.712 1156.62 225.185V234.914C1156.62 236.333 1155.49 237.989 1154.01 238.64C1153.1 239.024 1152.21 238.995 1151.56 238.551C1151.03 238.167 1150.73 237.546 1150.73 236.806V227.994C1150.41 228.142 1150.05 228.319 1150.05 228.319C1150.05 228.319 1136.42 235.003 1133.58 236.363V247.275C1133.58 248.724 1132.4 250.291 1130.86 250.942C1129.88 251.356 1128.97 251.444 1128.32 250.942C1127.78 250.557 1127.49 249.936 1127.49 249.226V239.468C1120.78 242.721 1114.8 245.974 1109.3 248.842V260.789C1109.3 262.238 1108.09 263.835 1106.46 264.456C1105.46 264.84 1104.48 264.781 1103.83 264.278C1103.3 263.894 1103 263.273 1103 262.563V252.124C1101.05 253.189 1093.51 257.24 1093.51 257.24V255.673V250.764C1093.51 250.764 1102.06 246.21 1103 245.707V238.581C1103 237.161 1104.22 235.535 1105.81 234.825C1106.82 234.382 1107.79 234.382 1108.47 234.884C1109.01 235.269 1109.3 235.89 1109.3 236.599V242.484C1114.83 239.645 1120.81 236.481 1127.49 233.317V226.604C1127.49 225.185 1128.64 223.44 1130.18 222.73C1131.16 222.287 1132.07 222.287 1132.75 222.73C1133.29 223.085 1133.58 223.736 1133.58 224.446V230.271C1135.8 229.236 1149.31 222.73 1149.31 222.73C1149.31 222.73 1150.67 222.11 1150.73 222.08V215.604C1150.73 214.214 1151.83 212.528 1153.3 211.819C1154.22 211.375 1155.11 211.375 1155.76 211.819C1156.29 212.174 1156.62 212.824 1156.62 213.563V219.33C1158.75 218.384 1171.7 212.558 1172.7 212.085V206.2C1172.7 204.84 1173.74 203.273 1175.13 202.563C1175.99 202.119 1176.87 202.119 1177.49 202.563C1178.03 202.918 1178.35 203.539 1178.35 204.278V209.571C1180.45 208.655 1192.4 203.539 1193.4 203.095V197.92C1193.4 196.59 1194.41 195.052 1195.71 194.372C1196.54 193.928 1197.37 193.928 1197.99 194.342C1198.52 194.697 1198.81 195.318 1198.81 196.057V200.759C1200.83 199.902 1210.55 195.939 1211.56 195.495V191.001C1211.56 189.699 1212.51 188.251 1213.75 187.6C1214.55 187.186 1215.32 187.156 1215.94 187.541C1216.47 187.896 1216.76 188.517 1216.76 189.226V193.396C1218.57 192.657 1223.95 190.528 1223.95 190.528C1223.95 190.528 1227.08 189.315 1228.47 188.783V184.939C1228.47 183.667 1229.36 182.218 1230.54 181.538C1231.28 181.124 1232.05 181.065 1232.61 181.42C1233.15 181.745 1233.44 182.336 1233.44 183.076V186.861C1235.31 186.121 1243.08 183.223 1244.09 182.809V179.645C1244.09 178.433 1244.95 177.013 1246.04 176.363C1246.75 175.949 1247.46 176.008 1248.02 176.363C1248.52 176.688 1248.82 177.28 1248.82 177.989V181.065C1250.06 180.562 1257.37 177.96 1258.43 177.546V175.21C1258.43 174.056 1259.23 172.696 1260.26 172.075C1260.94 171.691 1261.62 171.631 1262.16 171.957V171.986Z" fill="#02351A"/>
</g>
</svg>
