<svg width="1440" height="880" viewBox="0 0 1440 880" fill="none" xmlns="http://www.w3.org/2000/svg">
<g clip-path="url(#clip0_12_8332)">
<path d="M0 879.997C0 879.997 26.4681 752.593 108.17 714.977C189.871 677.36 224.395 638.534 240.504 577.866C256.613 517.197 263.519 462.594 326.809 422.553C390.098 382.511 380.892 341.257 388.948 308.494C397.004 275.731 416.566 206.351 468.349 180.98C520.133 155.609 570.766 124.621 583.422 90.3663C596.081 56.1116 645.849 15.0861 737.188 15.0861C828.526 15.0861 871.104 61.2743 892.969 82.3562C914.834 103.435 907.003 131.032 974.67 163.747C1046.08 198.272 1045.07 229.332 1056.37 259.833C1065.67 284.942 1081.69 309.71 1140.38 342.472C1199.06 375.235 1263.5 404.354 1275.01 482.012C1286.52 559.67 1276.16 619.123 1331.4 689.499C1386.63 759.875 1454.53 792.638 1437.26 880H0V879.997Z" fill="url(#paint0_linear_12_8332)"/>
<path d="M111.848 879.997C111.848 879.997 255.689 807.2 276.466 697.197C297.242 587.195 319.619 532.193 362.769 494.988C405.923 457.783 447.476 391.131 463.457 314.453C479.439 237.774 495.579 220.971 537.855 200.254C580.13 179.54 603.984 130.34 615.291 114.419C633.874 88.2542 683.117 52.5317 737.907 52.5317C792.696 52.5317 867.813 83.4872 888.589 155.776C909.366 228.068 950.922 236.612 1000.47 263.886C1050.01 291.159 1107.55 324.144 1131.52 447.583C1155.5 571.019 1179.47 556.459 1225.82 596.901C1272.17 637.343 1294.55 677.785 1310.53 731.169C1326.51 784.554 1336.1 852.495 1371.26 879.997H111.848Z" fill="url(#paint1_linear_12_8332)"/>
<path d="M286.449 879.997C286.449 879.997 364.2 773.757 365.398 713.094C366.596 652.431 373.954 576.683 413.51 517.233C453.067 457.783 560.948 377.989 564.545 297.774C568.142 217.556 650.494 162.849 756.755 160.478L815.79 167.741C815.79 167.741 818.664 218.769 869.008 238.181C919.353 257.594 962.506 279.432 1003.26 357.082C1044.01 434.732 997.267 461.423 1088.37 564.549C1179.46 667.677 1168.68 634.918 1201.04 755.031C1233.41 875.144 1257.38 879.997 1257.38 879.997H286.449Z" fill="url(#paint2_linear_12_8332)"/>
<path d="M344 880C344 880 458.99 820.46 454.199 739.483C449.407 658.506 403.891 590.63 468.573 506.081C533.255 421.532 595.607 414.776 612.375 376.669C629.144 338.562 607.728 309.683 621.139 268.94C635.481 225.372 710.529 218.526 742.473 229.809C778.41 242.502 788.532 252.292 788.532 252.292C788.532 252.292 845.885 238.423 893.796 308.544C941.709 378.665 912.961 453.685 947.698 507.272C982.434 560.858 1025.56 606.11 1061.49 635.882C1097.42 665.653 1184.87 774.017 1174.09 880H344Z" fill="url(#paint3_linear_12_8332)"/>
<path d="M1353.74 592.363C1347.34 595.412 1346.7 600.726 1346.81 607.885C1346.96 618.079 1350.07 637.667 1368.46 658.779C1395.23 689.515 1394.83 668.081 1391.24 658.779C1387.64 649.477 1377.65 625.212 1378.85 611.868C1379.8 601.302 1376.07 593.213 1366.88 590.948C1362.5 589.869 1357.87 590.437 1353.78 592.345C1353.77 592.351 1353.75 592.36 1353.74 592.366V592.363Z" fill="#025A2B"/>
<path d="M1344.9 505.568C1351.3 505.568 1356.48 510.816 1356.48 517.289C1356.48 523.763 1351.3 529.01 1344.9 529.01C1338.51 529.01 1333.32 523.763 1333.32 517.289C1333.32 510.816 1338.51 505.568 1344.9 505.568Z" fill="#025A2B"/>
<path d="M1121.66 214.881C1115.11 222.638 1112.06 232.796 1112.83 242.969C1113.97 258.096 1121.17 282.296 1151.9 301.878C1200.44 332.816 1201.04 308.55 1196.85 301.878C1192.65 295.207 1166.28 259.416 1162.09 234.544C1158.5 213.3 1138.3 195.151 1121.65 214.884L1121.66 214.881Z" fill="#025A2B"/>
<path d="M1031.99 147.511C1031.99 147.511 1032.43 167.337 1057.6 175.022C1082.78 182.708 1078.78 151.951 1059.2 134.976C1039.62 118 1029.23 130.268 1031.99 147.511Z" fill="#025A2B"/>
<path d="M974.03 90.0195C974.03 90.0195 973.663 73.4659 952.646 67.0495C931.629 60.6331 934.964 86.3135 951.313 100.487C967.659 114.66 976.338 104.415 974.03 90.0195Z" fill="#025A2B"/>
<path d="M1006.36 46.9832C1010.5 46.9832 1013.85 50.3789 1013.85 54.5676C1013.85 58.7563 1010.5 62.1519 1006.36 62.1519C1002.22 62.1519 998.867 58.7563 998.867 54.5676C998.867 50.3789 1002.22 46.9832 1006.36 46.9832Z" fill="#025A2B"/>
<path d="M865.813 1.71661e-05C869.952 1.71661e-05 873.307 3.39565 873.307 7.58436C873.307 11.7731 869.952 15.1687 865.813 15.1687C861.675 15.1687 858.32 11.7731 858.32 7.58436C858.32 3.39565 861.675 1.71661e-05 865.813 1.71661e-05Z" fill="#025A2B"/>
<path d="M592.802 1.71661e-05C596.94 1.71661e-05 600.295 3.39565 600.295 7.58436C600.295 11.7731 596.94 15.1687 592.802 15.1687C588.663 15.1687 585.309 11.7731 585.309 7.58436C585.309 3.39565 588.663 1.71661e-05 592.802 1.71661e-05Z" fill="#025A2B"/>
<path d="M460.6 96.0646C452.948 106.151 459.795 120.672 472.354 121.047C485.1 121.427 505.265 117.222 524.988 93.1937C557.354 53.7623 535.176 33.5622 524.988 34.8668C514.799 36.1715 510.004 53.1561 486.629 71.9624C475.492 80.9227 466.123 88.7804 460.597 96.0646H460.6Z" fill="#025A2B"/>
<path d="M417.832 147.875C425.053 150.95 428.08 160.243 424.592 168.632C421.105 177.021 412.424 181.329 405.203 178.253C397.983 175.178 394.956 165.885 398.443 157.496C401.931 149.107 410.611 144.799 417.832 147.875Z" fill="#025A2B"/>
<path d="M347.048 267.241C348.167 267.529 349.341 267.488 350.466 267.22C355.176 266.1 371.401 261.407 373.958 249.505C376.956 235.551 374.557 218.365 360.173 223.622C345.788 228.879 346.787 243.237 347.186 249.1C347.553 254.506 339.943 265.41 347.048 267.241Z" fill="#025A2B"/>
<path d="M225.568 438.269C231.664 438.269 236.606 443.271 236.606 449.44C236.606 455.61 231.664 460.612 225.568 460.612C219.473 460.612 214.531 455.61 214.531 449.44C214.531 443.271 219.473 438.269 225.568 438.269Z" fill="#025A2B"/>
<path d="M123.309 626.389C127.054 630.179 126.12 637.271 121.222 642.228C116.325 647.185 109.319 648.13 105.574 644.34C101.829 640.549 102.763 633.458 107.66 628.501C112.558 623.544 119.564 622.598 123.309 626.389Z" fill="#025A2B"/>
<path d="M185.49 563.072C194.413 570.811 194.657 585.34 186.036 595.524C177.415 605.709 163.193 607.692 154.27 599.954C145.347 592.215 145.102 577.686 153.723 567.502C162.344 557.317 176.567 555.334 185.49 563.072Z" fill="#025A2B"/>
</g>
<defs>
<linearGradient id="paint0_linear_12_8332" x1="774" y1="14.6752" x2="772.333" y2="880.374" gradientUnits="userSpaceOnUse">
<stop stop-color="#0B934A"/>
<stop offset="1" stop-color="#025A2B"/>
</linearGradient>
<linearGradient id="paint1_linear_12_8332" x1="741.553" y1="879.997" x2="741.553" y2="52.5317" gradientUnits="userSpaceOnUse">
<stop stop-color="#025A2B"/>
<stop offset="1" stop-color="#025A2B" stop-opacity="0.41"/>
</linearGradient>
<linearGradient id="paint2_linear_12_8332" x1="772.402" y1="-118.163" x2="732.88" y2="814.383" gradientUnits="userSpaceOnUse">
<stop stop-color="#1FC069"/>
<stop offset="1" stop-color="#025A2B"/>
</linearGradient>
<linearGradient id="paint3_linear_12_8332" x1="759.572" y1="811.728" x2="765.574" y2="-200.523" gradientUnits="userSpaceOnUse">
<stop stop-color="#025A2B"/>
<stop offset="1" stop-color="#069B4C"/>
</linearGradient>
<clipPath id="clip0_12_8332">
<rect width="1440" height="880" fill="white" transform="matrix(1 0 0 -1 0 880)"/>
</clipPath>
</defs>
</svg>
